<svg
   version="1.1"
   id="svg1"
   width="203.37"
   height="139.02"
   viewBox="5.03 7.6 203.37 139.02"
   sodipodi:docname="logo-meals.svg"
   inkscape:version="1.4.2 (f4327f4, 2025-05-13)"
   xmlns:inkscape="http://www.inkscape.org/namespaces/inkscape"
   xmlns:sodipodi="http://sodipodi.sourceforge.net/DTD/sodipodi-0.dtd"
   xmlns="http://www.w3.org/2000/svg"
   xmlns:svg="http://www.w3.org/2000/svg">
  <defs
     id="defs1" />
  <sodipodi:namedview
     id="namedview1"
     pagecolor="#505050"
     bordercolor="#eeeeee"
     borderopacity="1"
     inkscape:showpageshadow="0"
     inkscape:pageopacity="0"
     inkscape:pagecheckerboard="0"
     inkscape:deskcolor="#505050"
     inkscape:zoom="1.0878906"
     inkscape:cx="160.40216"
     inkscape:cy="361.70916"
     inkscape:window-width="1264"
     inkscape:window-height="1307"
     inkscape:window-x="3837"
     inkscape:window-y="43"
     inkscape:window-maximized="0"
     inkscape:current-layer="svg1" />
  <path
     style="fill:#000000"
     d="M 95.482757,143.7941 C 80.181007,142.17786 60.692617,135.12043 48.348722,126.72521 41.450962,122.03397 28.538452,109.32785 23.536632,102.3097 14.945282,90.255016 7.0269321,70.281796 7.0269321,60.665706 c 0,-7.9143 4.8434499,-14.21678 14.7869199,-19.24129 15.87466,-8.021589 49.650545,-13.585869 82.591238,-13.606169 l 13.87816,-0.009 -2.65268,-3.25 c -4.39969,-5.39041 -5.04468,-7.27102 -3.64919,-10.64004 1.59015,-3.83894 5.60167,-5.3364197 9.69025,-3.61731 3.61157,1.51856 23.3553,22.94782 23.3553,25.34916 0,1.823539 -21.08335,23.221469 -24.67756,25.045769 -2.37059,1.20322 -4.84248,0.65006 -7.57244,-1.69457 -3.02068,-2.59431 -2.08427,-6.03559 3.34894,-12.30722 l 5.09895,-5.88534 h -12.45373 c -42.706733,0 -88.744158,9.82913 -88.744158,18.94716 0,6.67426 23.22314,13.88133 54.855955,17.024 24.12928,2.39719 65.351743,0.7739 88.144043,-3.47103 23.76237,-4.42559 34.00959,-11.08741 26.40184,-17.16409 -3.93583,-3.14375 -13.01143,-6.65086 -24.19183,-9.34851 -8.11276,-1.95748 -9.47458,-2.59848 -10.74662,-5.05833 -1.60235,-3.09859 -0.85394,-6.530259 1.92764,-8.838769 1.34159,-1.11341 3.09113,-0.96902 10.85418,0.89583 19.82139,4.761529 31.91312,11.353779 36.68923,20.002459 c 1.2,2.2 1.0,10.0 0.67851,12.95981 c -8.49118,41.352454 -43.53898,72.030654 -87.94733,76.982484 -10.37863,1.15728 -10.74984,1.15822 -21.209793,0.0534 z m 29.244283,-14.55748 c 24.98288,-5.16036 46.27049,-20.44308 58.56987,-42.048264 3.51071,-6.16693 3.61387,-6.57137 1.5,-5.88076 -8.85036,2.89147 -26.03287,6.79576 -36.19511,8.22442 -15.38981,2.16359 -63.802033,2.44122 -79.574863,0.45634 -11.95376,-1.50428 -31.928175,-5.53639 -37.948135,-7.66036 -2.22853,-0.78627 -4.05187,-1.15529 -4.05187,-0.82004 0,1.48383 7.30952,13.31613 11.44311,18.523574 10.57925,13.32756 29.958205,25.13739 47.216435,28.7744 11.22791,2.36618 28.735203,2.55932 39.040563,0.43069 z"
     id="path1"
     sodipodi:nodetypes="sssssccssssssccsssssssssscssssssssssssss" />
</svg>
